<mxfile host="65bd71144e">
    <diagram id="5VTRmrRH3ccSghIPzw8_" name="Page-1">
        <mxGraphModel dx="576" dy="466" grid="1" gridSize="10" guides="1" tooltips="1" connect="1" arrows="1" fold="1" page="1" pageScale="1" pageWidth="850" pageHeight="1100" math="0" shadow="0">
            <root>
                <mxCell id="0"/>
                <mxCell id="1" parent="0"/>
                <mxCell id="2" value="" style="whiteSpace=wrap;html=1;aspect=fixed;" vertex="1" parent="1">
                    <mxGeometry x="120" y="120" width="260" height="260" as="geometry"/>
                </mxCell>
                <mxCell id="3" value="&lt;font style=&quot;font-size: 26px;&quot;&gt;Node&lt;/font&gt;" style="text;html=1;strokeColor=none;fillColor=none;align=center;verticalAlign=middle;whiteSpace=wrap;rounded=0;fontFamily=Times New Roman;" vertex="1" parent="1">
                    <mxGeometry x="90" y="70" width="140" height="50" as="geometry"/>
                </mxCell>
                <mxCell id="4" value="v8 engine" style="whiteSpace=wrap;html=1;aspect=fixed;fontFamily=Times New Roman;fontSize=26;" vertex="1" parent="1">
                    <mxGeometry x="150" y="190" width="90" height="90" as="geometry"/>
                </mxCell>
                <mxCell id="5" value="with super power" style="ellipse;whiteSpace=wrap;html=1;fontFamily=Times New Roman;fontSize=26;" vertex="1" parent="1">
                    <mxGeometry x="250" y="200" width="120" height="80" as="geometry"/>
                </mxCell>
            </root>
        </mxGraphModel>
    </diagram>
</mxfile>